<?xml version="1.0" encoding="utf-8"?>
<!-- Generator: Adobe Illustrator 18.1.0, SVG Export Plug-In . SVG Version: 6.00 Build 0)  -->
<svg version="1.1" id="Layer_1" xmlns="http://www.w3.org/2000/svg" xmlns:xlink="http://www.w3.org/1999/xlink" x="0px" y="0px"
	 viewBox="0 0 500 500" enable-background="new 0 0 500 500" xml:space="preserve">
<g>
	<polygon points="47.9,181.5 33.8,233.1 19.8,181.5 0,181.5 23.7,256 23.7,311.1 33.8,311.1 44,311.1 44,256 67.8,181.5 	"/>
	<path d="M165.6,288.7c-5.2,5.8-14.2,13.8-16.4,2.8V215h-16v86c0,0,6.1,26.6,32.3-1.9v12h17.2V215h-17.2V288.7z"/>
	<path d="M92.7,213.9c-14.3,0-26,11.7-26,26v46.9c0,14.3,11.7,26,26,26s26-11.7,26-26v-46.9C118.8,225.4,107.1,213.9,92.7,213.9z
		 M101.2,288.5c0,4.7-3.8,8.5-8.5,8.5s-8.5-3.8-8.5-8.5v-50.5c0-4.7,3.8-8.5,8.5-8.5s8.5,3.8,8.5,8.5V288.5z"/>
	<path d="M382.2,229.5c-2.9,0-5.6,1.4-7.2,3.4v60.6c1.6,2.2,4.2,3.4,7.2,3.4c4.9,0,9-3.9,9-8.9v-49.8
		C391.2,233.4,387.2,229.5,382.2,229.5z"/>
	<path d="M448.4,229.2c-4.7,0-8.5,3.8-8.5,8.5v13.7h17v-13.7C456.9,233,453.1,229.2,448.4,229.2z"/>
	<path d="M497,196.5c-3-33.5-18.9-39.7-29.5-42.3c-10.5-2.7-115.9-3.4-115.9-3.4s-105.2,0.8-115.9,3.4c-10.5,2.7-26.4,8.9-29.5,42.3
		c-3,33.5-3,39.7-3,53.5c0,13.8,0,20,3,53.5s18.9,39.7,29.5,42.3c10.5,2.7,115.9,3.4,115.9,3.4s105.2-0.8,115.9-3.4
		c10.5-2.7,26.4-8.9,29.5-42.3c3-33.5,3-39.7,3-53.5C500,236.2,500,230,497,196.5z M289.4,200.1h-20.7v112.3h-19.4V200.1h-20.7v-18
		h60.7V200.1z M341.8,311.1h-17.2v-12c-26.2,28.5-32.3,1.9-32.3,1.9v-86h16v76.4c2.3,11.2,11.2,3,16.4-2.8V215h17.2V311.1z
		 M408.5,294.6c0,0,0.1,21.4-20.5,17.6c0,0-7.6-3.2-12.9-10.8v10.8h-17.7V182H375v42c4.8-5.7,13.9-13.6,23.8-8.9
		c0,0,10.1,4.8,9.5,21.6c-0.5,16.9,0,0.8,0,0.8v57.2H408.5z M474.8,266h-17.9h-17v11.8v10.9c0,4.7,3.8,8.5,8.5,8.5s8.5-3.8,8.5-8.5
		v-10.9h17.9v8.9c0,15-11.7,27-26.1,27s-26.1-12-26.1-27v-46.4c0-15,11.7-27,26.1-27s26.1,12,26.1,27L474.8,266L474.8,266z"/>
</g>
</svg>
